<svg width="147" height="147" viewBox="0 0 147 147" fill="none" xmlns="http://www.w3.org/2000/svg">
<path d="M73.5 116.613C92.8006 116.613 108.447 100.967 108.447 81.6666C108.447 62.3661 92.8006 46.7198 73.5 46.7198C54.1994 46.7198 38.5532 62.3661 38.5532 81.6666C38.5532 100.967 54.1994 116.613 73.5 116.613Z" fill="#F8DA7F"/>
<path d="M73.5 128.251C62.5909 128.251 51.9841 124.401 43.6328 117.407C42.9419 116.829 42.8505 115.798 43.4287 115.108C44.0069 114.413 45.0359 114.322 45.73 114.903C53.4949 121.402 63.357 124.984 73.5 124.984C97.3662 124.984 116.783 105.567 116.783 81.701C116.783 57.8347 97.3662 38.4177 73.5 38.4177C50.1792 38.4177 31.1068 56.9544 30.2476 80.0677H37.3412C38.2428 80.0677 38.9746 80.7978 38.9746 81.701C38.9746 82.6042 38.2428 83.3343 37.3412 83.3343H28.5833C27.6817 83.3343 26.95 82.6042 26.95 81.701C26.95 56.0332 47.8321 35.151 73.5 35.151C99.1678 35.151 120.05 56.0332 120.05 81.701C120.05 107.369 99.1678 128.251 73.5 128.251Z" fill="black"/>
<path d="M73.5 147C37.4948 147 8.20093 117.706 8.20093 81.701C8.20093 50.2364 30.3587 23.4988 61.0883 17.5975V12.9948H53.9882C53.0866 12.9948 52.3548 12.2631 52.3548 11.3615C52.3548 5.096 57.4508 0 63.7163 0H83.2836C89.5491 0 94.6451 5.096 94.6451 11.3615C94.6451 12.2631 93.915 12.9948 93.0118 12.9948H85.91V17.5975C116.643 23.4971 138.799 50.2315 138.799 81.701C138.799 117.706 109.507 147 73.5 147ZM64.3549 18.7703C64.3566 18.7866 64.3582 18.8046 64.3598 18.8193C64.4317 19.6653 63.8535 20.4248 63.0172 20.5669C33.1468 25.6531 11.4676 51.3634 11.4676 81.701C11.4676 115.906 39.2947 143.733 73.5 143.733C107.705 143.733 135.532 115.906 135.532 81.701C135.532 51.3569 113.847 25.6466 83.9664 20.5653C83.1301 20.4232 82.5421 19.6637 82.614 18.8176C82.6189 18.7474 82.6303 18.6772 82.645 18.6102V11.3615C82.645 10.4599 83.3751 9.72813 84.2783 9.72813H91.2135C90.4556 6.04497 87.1889 3.26667 83.2836 3.26667H63.7163C59.8126 3.26667 56.5443 6.04497 55.7881 9.72813H62.7232C63.6248 9.72813 64.3566 10.4599 64.3566 11.3615V18.7703H64.3549Z" fill="black"/>
<path d="M111.173 83.3343H109.659C108.755 83.3343 108.025 82.6042 108.025 81.701C108.025 80.7977 108.755 80.0676 109.659 80.0676H111.173C112.076 80.0676 112.806 80.7977 112.806 81.701C112.806 82.6042 112.076 83.3343 111.173 83.3343Z" fill="black"/>
<path d="M73.5 47.174C72.5984 47.174 71.8667 46.4422 71.8667 45.5406V44.0265C71.8667 43.1249 72.5984 42.3932 73.5 42.3932C74.4016 42.3932 75.1334 43.1249 75.1334 44.0265V45.5406C75.1334 46.4439 74.4016 47.174 73.5 47.174Z" fill="black"/>
<path d="M73.5 121.007C72.5984 121.007 71.8667 120.277 71.8667 119.374V117.86C71.8667 116.956 72.5984 116.226 73.5 116.226C74.4016 116.226 75.1334 116.956 75.1334 117.86V119.374C75.1334 120.277 74.4016 121.007 73.5 121.007Z" fill="black"/>
</svg>
