<svg width="154" height="147" viewBox="0 0 154 147" fill="none" xmlns="http://www.w3.org/2000/svg">
<path d="M142.022 54.3442H11.9778V101.043H142.022V54.3442Z" fill="#F8DA7F"/>
<path d="M91.7035 54.5664C91.2655 54.5664 90.8275 54.4063 90.4938 54.0878L81.7055 45.699C81.0365 45.0604 81.0365 44.0281 81.7055 43.3895L90.4938 35.0007C91.1628 34.3621 92.2443 34.3621 92.9133 35.0007C93.5823 35.6393 93.5823 36.6716 92.9133 37.3102L85.3348 44.5443L92.9133 51.7783C93.5823 52.4169 93.5823 53.4492 92.9133 54.0878C92.5779 54.408 92.1416 54.5664 91.7035 54.5664Z" fill="black"/>
<path d="M152.289 112.476H1.71111C0.766578 112.476 0 111.746 0 110.843V44.5442C0 43.6426 0.766578 42.9109 1.71111 42.9109H67.5872C68.5317 42.9109 69.2983 43.6426 69.2983 44.5442C69.2983 45.4458 68.5317 46.1776 67.5872 46.1776H3.42222V109.21H150.578V46.1776H82.9153C81.9691 46.1776 81.2042 45.4458 81.2042 44.5442C81.2042 43.6426 81.9691 42.9109 82.9153 42.9109H152.289C153.235 42.9109 154 43.6426 154 44.5442V110.843C154 111.746 153.235 112.476 152.289 112.476Z" fill="black"/>
<path d="M77 96.4778C66.1499 96.4778 57.3223 88.0514 57.3223 77.6945C57.3223 67.3375 66.1499 58.9111 77 58.9111C87.8502 58.9111 96.6778 67.3375 96.6778 77.6945C96.6778 88.0514 87.8502 96.4778 77 96.4778ZM77 62.1778C68.0372 62.1778 60.7445 69.1391 60.7445 77.6945C60.7445 86.2499 68.0372 93.2111 77 93.2111C85.9628 93.2111 93.2556 86.2499 93.2556 77.6945C93.2556 69.1391 85.9628 62.1778 77 62.1778Z" fill="black"/>
<path d="M54.0523 96.4777H28.7416C27.797 96.4777 27.0305 95.7476 27.0305 94.8444C27.0322 90.2384 23.1497 86.5323 18.3774 86.5323C17.4328 86.5323 16.6663 85.8022 16.6663 84.899V70.4881C16.6663 69.5865 17.4328 68.8548 18.3774 68.8548C23.1257 68.8548 27.0065 65.1667 27.0305 60.6342C27.0356 59.7359 27.8005 59.009 28.7416 59.009H54.0523C54.9969 59.009 55.7634 59.7408 55.7634 60.6424C55.7634 61.544 54.9969 62.2757 54.0523 62.2757H30.3243C29.5475 67.2998 25.3536 71.2868 20.0885 72.0055V83.38C25.3998 84.1019 29.6091 88.1346 30.3415 93.211H54.0523C54.9969 93.211 55.7634 93.9411 55.7634 94.8444C55.7634 95.7476 54.9986 96.4777 54.0523 96.4777Z" fill="black"/>
<path d="M125.257 96.4777H99.9477C99.0014 96.4777 98.2366 95.7476 98.2366 94.8443C98.2366 93.9411 99.0014 93.211 99.9477 93.211H123.665C124.418 88.1575 128.619 84.1509 133.91 83.4306V72.0561C128.617 71.3374 124.418 67.3292 123.665 62.2773H99.9477C99.0014 62.2773 98.2366 61.5456 98.2366 60.644C98.2366 59.7424 99.0014 59.0106 99.9477 59.0106H125.257C126.203 59.0106 126.968 59.7424 126.968 60.644C126.968 65.1993 130.85 68.9054 135.623 68.9054C136.569 68.9054 137.334 69.6371 137.334 70.5387V84.9496C137.334 85.8528 136.569 86.5829 135.623 86.5829C130.85 86.5829 126.968 90.2906 126.968 94.846C126.968 95.7476 126.203 96.4777 125.257 96.4777Z" fill="black"/>
</svg>
