<svg width="149" height="147" viewBox="0 0 149 147" fill="none" xmlns="http://www.w3.org/2000/svg">
<g clip-path="url(#clip0_21_238)">
<path d="M102.818 45.4377H38.5132V92.9204H102.818V45.4377Z" fill="#F8DA7F"/>
<path d="M109.44 101.087H73.8626C72.9487 101.087 72.207 100.357 72.207 99.4537C72.207 98.5505 72.9487 97.8204 73.8626 97.8204H107.785V40.5394H33.5465V46.2838C33.5465 47.1854 32.8048 47.9171 31.8909 47.9171C30.977 47.9171 30.2354 47.1854 30.2354 46.2838V38.906C30.2354 38.0044 30.977 37.2727 31.8909 37.2727H109.44C110.356 37.2727 111.096 38.0044 111.096 38.906V99.4537C111.096 100.355 110.356 101.087 109.44 101.087Z" fill="black"/>
<path d="M45.8307 101.087H31.8909C30.977 101.087 30.2354 100.357 30.2354 99.4537V91.2266C30.2354 90.3234 30.977 89.5933 31.8909 89.5933C32.8048 89.5933 33.5465 90.3234 33.5465 91.2266V97.8204H45.8307C46.7446 97.8204 47.4862 98.5505 47.4862 99.4537C47.4862 100.357 46.7446 101.087 45.8307 101.087Z" fill="black"/>
<path d="M147.344 101.087C146.434 101.087 145.695 100.363 145.689 99.4651L145.532 76.3747L128.559 58.7984H111.096V97.8204H120.508C121.423 97.8204 122.163 98.5505 122.163 99.4537C122.163 100.357 121.423 101.087 120.508 101.087H109.44C108.525 101.087 107.785 100.357 107.785 99.4537V57.1651C107.785 56.2635 108.525 55.5317 109.44 55.5317H129.269C129.721 55.5317 130.155 55.7147 130.468 56.0381L148.381 74.5895C148.672 74.8916 148.834 75.2902 148.838 75.705L149 99.4423C149.007 100.346 148.27 101.08 147.356 101.087C147.353 101.087 147.348 101.087 147.344 101.087Z" fill="black"/>
<path d="M133.921 77.3482H119.907C118.991 77.3482 118.251 76.6181 118.251 75.7148V57.1651C118.251 56.2635 118.991 55.5317 119.907 55.5317C120.822 55.5317 121.562 56.2635 121.562 57.1651V74.0831H133.921C134.837 74.0831 135.577 74.8149 135.577 75.7165C135.577 76.6181 134.835 77.3482 133.921 77.3482Z" fill="black"/>
<path d="M54.5919 109.729C48.8488 109.729 44.1752 105.12 44.1752 99.4538C44.1752 93.7877 48.8471 89.1785 54.5919 89.1785C60.335 89.1785 65.007 93.7877 65.007 99.4538C65.007 105.12 60.3334 109.729 54.5919 109.729ZM54.5919 92.4451C50.6749 92.4451 47.4863 95.5893 47.4863 99.4538C47.4863 103.318 50.6732 106.462 54.5919 106.462C58.5106 106.462 61.6959 103.318 61.6959 99.4538C61.6959 95.5893 58.509 92.4451 54.5919 92.4451Z" fill="black"/>
<path d="M129.269 109.729C123.524 109.729 118.852 105.12 118.852 99.4538C118.852 93.7877 123.524 89.1785 129.269 89.1785C135.012 89.1785 139.684 93.7877 139.684 99.4538C139.684 105.12 135.012 109.729 129.269 109.729ZM129.269 92.4451C125.352 92.4451 122.163 95.5893 122.163 99.4538C122.163 103.318 125.352 106.462 129.269 106.462C133.186 106.462 136.373 103.318 136.373 99.4538C136.373 95.5893 133.186 92.4451 129.269 92.4451Z" fill="black"/>
<path d="M70.6657 70.8116H1.65556C0.741689 70.8116 0 70.0799 0 69.1783C0 68.2767 0.741689 67.5449 1.65556 67.5449H70.6657C71.5796 67.5449 72.3213 68.2767 72.3213 69.1783C72.3213 70.0799 71.5796 70.8116 70.6657 70.8116Z" fill="black"/>
<path d="M70.6657 56.9838H19.1763C18.2624 56.9838 17.5208 56.2521 17.5208 55.3505C17.5208 54.4489 18.2624 53.7172 19.1763 53.7172H70.6674C71.5813 53.7172 72.323 54.4489 72.323 55.3505C72.323 56.2521 71.5796 56.9838 70.6657 56.9838Z" fill="black"/>
<path d="M70.6657 84.6393H19.1763C18.2624 84.6393 17.5208 83.9092 17.5208 83.006C17.5208 82.1028 18.2624 81.3727 19.1763 81.3727H70.6674C71.5813 81.3727 72.323 82.1028 72.323 83.006C72.323 83.9092 71.5796 84.6393 70.6657 84.6393Z" fill="black"/>
</g>
<defs>
<clipPath id="clip0_21_238">
<rect width="149" height="147" fill="white"/>
</clipPath>
</defs>
</svg>
