<svg width="148" height="147" viewBox="0 0 148 147" fill="none" xmlns="http://www.w3.org/2000/svg">
<g clip-path="url(#clip0_21_220)">
<path d="M74 121.102C103.517 121.102 127.444 97.3356 127.444 68.0185C127.444 38.7014 103.517 14.9352 74 14.9352C44.4834 14.9352 20.5555 38.7014 20.5555 68.0185C20.5555 97.3356 44.4834 121.102 74 121.102Z" fill="#F8DA7F"/>
<path d="M97.8576 76.2603C97.5929 76.2603 97.3281 76.1966 97.0847 76.0676C96.5486 75.785 96.2132 75.2297 96.2132 74.627V63.5644H87.3332C86.4238 63.5644 85.6887 62.8327 85.6887 61.9311V22.7229C85.6887 21.8213 86.4238 21.0896 87.3332 21.0896H146.356C147.265 21.0896 148 21.8213 148 22.7229V61.9311C148 62.8327 147.265 63.5644 146.356 63.5644H117.346L98.7752 75.9827C98.4989 76.1672 98.1783 76.2587 97.8576 76.2603ZM88.976 60.2978H97.856C98.7653 60.2978 99.5004 61.0295 99.5004 61.9311V71.5596L115.923 60.5771C116.195 60.3958 116.514 60.2994 116.843 60.2994H144.711V24.3563H88.976V60.2978Z" fill="black"/>
<path d="M105.376 146.381H43.0664C42.1586 146.381 41.4219 145.651 41.4219 144.748V103.356C41.4219 102.452 42.1586 101.722 43.0664 101.722H105.376C106.285 101.722 107.02 102.452 107.02 103.356V144.748C107.02 145.651 106.285 146.381 105.376 146.381ZM44.7108 143.114H103.732V104.989H44.7108V143.114Z" fill="black"/>
<path d="M74.2204 132.761C73.8274 132.761 73.4343 132.622 73.1219 132.342L52.2046 113.696C51.5287 113.094 51.4728 112.061 52.0796 111.39C52.6831 110.72 53.724 110.66 54.4015 111.266L74.2204 128.932L94.0392 111.266C94.7135 110.663 95.7544 110.717 96.3612 111.39C96.968 112.061 96.9121 113.094 96.2362 113.696L75.3189 132.342C75.0064 132.622 74.6134 132.761 74.2204 132.761Z" fill="black"/>
<path d="M45.2573 76.2602C35.8569 76.2602 25.2545 70.8256 15.3935 60.9581C5.37139 51.0768 -0.100249 40.4545 0.00107732 31.0536C0.0563464 25.683 1.95853 20.962 5.34836 17.7552C5.52799 17.5767 5.74907 17.38 5.97475 17.1971C6.19122 17.0141 6.4169 16.8494 6.64719 16.6893C6.95577 16.4743 7.17225 16.3462 7.39332 16.2181C7.40253 16.2135 7.54531 16.1266 7.55452 16.1266C7.76639 16.0122 7.97825 15.9116 8.19012 15.8109L8.42041 15.7057C8.61845 15.6234 8.82111 15.5456 9.02837 15.4724L9.28629 15.3855C9.48434 15.3214 9.6916 15.2666 9.89886 15.2117L10.189 15.1385C10.3963 15.1019 10.5851 15.0698 10.7786 15.0378L11.1194 14.9921C11.3036 14.9692 11.4924 14.9509 11.6813 14.9372L12.3629 14.9143L12.5932 14.9189C12.7222 14.9189 12.8558 14.9235 12.9893 14.9326C13.1643 14.9463 13.3348 14.9555 13.5052 14.9784C13.6479 14.9921 13.7815 15.0149 13.9197 15.0378C14.0763 15.0607 14.2375 15.0881 14.4033 15.1247L14.7994 15.2208C15.0435 15.2849 15.1725 15.3169 15.306 15.358C15.4488 15.4038 15.5824 15.4495 15.7159 15.4999C15.9508 15.5822 16.0706 15.628 16.1903 15.6783C16.3331 15.7377 16.4805 15.8064 16.6233 15.875C16.8305 15.9665 16.9319 16.0168 17.0332 16.0671C17.176 16.1403 17.3095 16.2227 17.4477 16.305L17.5997 16.3965L17.8484 16.5475C18.0142 16.6572 18.1616 16.767 18.3044 16.8814C18.3182 16.8906 18.6176 17.1147 18.6314 17.1239C18.8893 17.3389 19.1334 17.5539 19.3683 17.7826L24.6695 23.048C24.909 23.2859 25.1301 23.5329 25.3374 23.7845C25.3834 23.8394 25.4387 23.9126 25.494 23.9858C25.6874 24.242 25.8072 24.3975 25.9131 24.5576C25.9637 24.6308 26.019 24.7269 26.0743 24.8184L26.1664 24.9739C26.2493 25.1066 26.3276 25.2393 26.4013 25.3765C26.452 25.4726 26.5072 25.5869 26.5625 25.7013C26.6822 25.9529 26.7467 26.0856 26.8066 26.2228C26.8527 26.3372 26.8941 26.4515 26.9356 26.5659L26.9954 26.7306C27.0415 26.8495 27.0829 26.9731 27.1198 27.092C27.1612 27.2247 27.1981 27.3665 27.2349 27.5083C27.2948 27.7279 27.3271 27.856 27.3547 27.9841C27.3869 28.1442 27.4146 28.3043 27.4422 28.4644C27.4652 28.6062 27.4836 28.7389 27.5021 28.8761C27.5205 29.0499 27.5343 29.2238 27.5481 29.393C27.5573 29.5211 27.5619 29.6538 27.5666 29.7865C27.5666 29.9694 27.5666 30.1479 27.5619 30.3263L27.5435 30.6831C27.5343 30.8752 27.5159 31.0628 27.4929 31.2503L27.4422 31.5889C27.4146 31.781 27.3777 31.9731 27.3317 32.1698L27.258 32.4763C27.2119 32.6639 27.1566 32.8652 27.0922 33.0619C27.0876 33.0802 27.0277 33.2495 27.0185 33.2723C26.9263 33.5377 26.8481 33.7435 26.7605 33.9494C26.7513 33.9631 26.6915 34.0958 26.6822 34.1095C26.5625 34.3703 26.4612 34.5807 26.346 34.7865C26.3368 34.8094 26.2769 34.9101 26.2631 34.9284C26.1203 35.1708 25.9914 35.3858 25.8486 35.5963C25.6091 35.9302 25.4433 36.1498 25.2637 36.3648C25.0794 36.5844 24.8814 36.804 24.6695 37.0144L21.4179 40.2441L36.2576 54.9836L39.5139 51.7493C39.7258 51.5389 39.9468 51.3467 40.1679 51.1592C40.3844 50.9808 40.6101 50.8161 40.8357 50.656C41.1443 50.441 41.3654 50.3083 41.5819 50.1848C41.5911 50.1802 41.7431 50.0887 41.7569 50.0841C41.9595 49.9743 42.1714 49.8737 42.3833 49.7776L42.5859 49.6816C42.807 49.5901 43.0143 49.5123 43.2215 49.4391L43.4795 49.3522C43.6821 49.2882 43.8894 49.2333 44.092 49.1784L44.4006 49.1052C44.5802 49.064 44.7783 49.032 44.9717 49L45.2987 48.9542C45.5014 48.9313 45.6902 48.913 45.8791 48.8993L46.5607 48.8764L47.1687 48.8993C47.3575 48.913 47.5279 48.9268 47.6983 48.9451C47.8411 48.9588 47.9747 48.9816 48.1128 49.0045C48.274 49.0274 48.4352 49.0548 48.5965 49.0869C48.753 49.1189 48.8866 49.1555 49.0248 49.1921C49.2136 49.2378 49.361 49.279 49.5038 49.3247C49.6466 49.3705 49.7893 49.4208 49.9367 49.4757C50.144 49.5489 50.2591 49.5901 50.3789 49.6404C50.5263 49.6999 50.669 49.7685 50.8164 49.8371C51.0145 49.9286 51.125 49.9835 51.2263 50.0384C51.3645 50.1116 51.4981 50.1894 51.6316 50.2717L51.7882 50.3632L52.0462 50.5233C52.2028 50.6285 52.3594 50.7429 52.5113 50.8618C52.5252 50.8755 52.8153 51.0906 52.8291 51.0997C53.0779 51.3056 53.322 51.5206 53.5569 51.7539L58.8581 57.0193C59.093 57.2526 59.3141 57.4996 59.5213 57.7467C59.5766 57.8153 59.6319 57.8885 59.6825 57.9571C59.876 58.2087 59.9911 58.3642 60.097 58.5198C60.1523 58.5975 60.2076 58.689 60.2628 58.7851L60.3642 58.9544C60.4425 59.0825 60.5162 59.206 60.5852 59.3386C60.6359 59.4347 60.6866 59.5353 60.7326 59.636C60.8616 59.9059 60.9307 60.0431 60.9859 60.1849C61.0366 60.3039 61.0827 60.4274 61.1241 60.5463C61.2116 60.7796 61.2577 60.9123 61.2991 61.045C61.3452 61.1959 61.382 61.3423 61.4235 61.4887C61.4649 61.658 61.5018 61.7952 61.534 61.9325C61.5709 62.1063 61.5985 62.271 61.6215 62.4357L61.6814 62.8428C61.6998 63.0166 61.7137 63.1905 61.7275 63.3643C61.7367 63.4878 61.7413 63.6205 61.7459 63.7532C61.7505 63.9316 61.7505 64.11 61.7413 64.293L61.7229 64.6498C61.709 64.8419 61.6906 65.0295 61.6676 65.217L61.6169 65.5601C61.5893 65.7431 61.5525 65.9353 61.511 66.132L61.4511 66.3882C61.3866 66.6398 61.3314 66.841 61.2669 67.0378C61.2623 67.0515 61.207 67.2116 61.2024 67.2253C61.1057 67.4998 61.0274 67.7057 60.9399 67.9115C60.9307 67.9298 60.8754 68.0487 60.8662 68.067C60.7418 68.3415 60.6359 68.552 60.5208 68.7578C60.5116 68.7761 60.4471 68.8859 60.4379 68.9042C60.2951 69.1467 60.1661 69.3571 60.0233 69.5675C59.7884 69.9015 59.6226 70.1211 59.443 70.3315C59.2588 70.5557 59.0607 70.7752 58.8489 70.9811C55.6156 74.3755 50.7704 76.2602 45.2573 76.2602ZM58.1534 66.0313C58.1949 65.8987 58.2317 65.7614 58.2685 65.6242L58.3192 65.4138C58.3422 65.2994 58.3699 65.1713 58.3883 65.0386L58.4205 64.8191C58.4344 64.6864 58.4482 64.5629 58.4574 64.4348L58.4712 64.2015C58.4758 64.0642 58.4758 63.9453 58.4712 63.8264L58.4574 63.5702C58.4482 63.4512 58.4436 63.3369 58.4297 63.2225L58.3883 62.948C58.3699 62.8245 58.3515 62.7193 58.3284 62.6141L57.8448 61.1868C57.8402 61.1822 57.7711 61.0267 57.7665 61.0221L57.6928 60.8711L57.4349 60.4366C57.3013 60.2307 57.2276 60.1346 57.154 60.0431L57.025 59.8739C56.8454 59.6497 56.698 59.485 56.5414 59.3295L51.2402 54.0641C51.0836 53.9085 50.9178 53.7621 50.7473 53.6249L50.5585 53.4831C50.4295 53.3825 50.3328 53.3093 50.2361 53.2452C50.2269 53.2406 50.0104 53.1125 50.0012 53.1034L48.2556 52.3669L47.316 52.1885C47.2009 52.1747 47.0812 52.1656 46.966 52.161L46.7081 52.1473L46.0909 52.161C45.9666 52.1702 45.8376 52.1839 45.7086 52.1976L45.4876 52.2296C45.354 52.2525 45.225 52.2754 45.0915 52.3028L44.9349 52.3394C44.7599 52.3852 44.6263 52.4218 44.4927 52.463L44.3223 52.5224C44.1795 52.5727 44.0367 52.6231 43.8986 52.6825C43.6176 52.8106 43.4748 52.8792 43.3367 52.957C43.0834 53.1034 42.9406 53.1903 42.7978 53.2864C42.5767 53.4419 42.4247 53.5517 42.282 53.6752C42.13 53.7987 41.9826 53.9268 41.8398 54.0686L38.2565 57.6277C37.1834 58.689 35.3319 58.6845 34.2679 57.6277L18.7603 42.2249C17.6596 41.1316 17.6596 39.3566 18.7603 38.2633L22.3482 34.6996C22.491 34.5624 22.62 34.4114 22.7443 34.265C22.8687 34.1186 22.9792 33.9677 23.0851 33.8167C23.2279 33.6109 23.3154 33.469 23.3983 33.3272C23.5411 33.0802 23.6056 32.9384 23.6701 32.8011L23.7438 32.6502C23.8036 32.5175 23.8497 32.3803 23.9004 32.2476L23.9556 32.0738C24.0017 31.9365 24.0385 31.8039 24.0708 31.6666L24.1214 31.4608C24.1491 31.3327 24.1721 31.2046 24.1951 31.0765L24.2274 30.8432C24.2458 30.7243 24.255 30.6007 24.2642 30.4727L24.2734 30.2348C24.278 30.1021 24.278 29.9786 24.2734 29.8597L24.2642 29.6035C24.255 29.4845 24.2458 29.3702 24.232 29.2604L23.905 27.8422C23.905 27.8422 23.8451 27.673 23.8405 27.673L23.6563 27.243C23.6563 27.2338 23.5826 27.0828 23.5826 27.0737L23.2371 26.4744C23.1036 26.264 23.0299 26.1679 22.9562 26.0719L22.8318 25.9026C22.6476 25.6784 22.5048 25.5183 22.3482 25.3628L17.047 20.0974C16.8904 19.9418 16.7246 19.7954 16.5496 19.6536L16.3699 19.521C16.2226 19.4112 16.1258 19.338 16.0337 19.2739C16.0245 19.2694 15.8127 19.1458 15.808 19.1413C15.6515 19.0452 15.5732 18.9949 15.4902 18.9537L15.329 18.8759C15.108 18.7707 15.0159 18.725 14.9237 18.6884L13.7216 18.3178C13.6295 18.2995 13.5236 18.2812 13.4131 18.2675L13.1229 18.2218C13.0077 18.208 12.888 18.2035 12.7729 18.1943L12.3675 18.1806L11.8978 18.1943C11.7734 18.2035 11.6444 18.2172 11.5201 18.2309L11.2944 18.2629C11.1654 18.2858 11.0273 18.3087 10.8937 18.3361C10.8937 18.3361 10.7049 18.3819 10.7003 18.3819C10.5621 18.4139 10.4285 18.4505 10.2996 18.4917L10.1245 18.5557C9.98176 18.606 9.84359 18.6564 9.70541 18.7158C9.41986 18.8485 9.27708 18.9171 9.13891 18.9903C8.88098 19.1367 8.7382 19.2236 8.60003 19.3197C8.37435 19.4752 8.22696 19.585 8.08419 19.704C7.9322 19.8275 7.78481 19.9556 7.64203 20.0974C4.87397 22.7186 3.33565 26.6117 3.28959 31.0902C3.19747 39.5991 8.32369 49.3888 17.7194 58.6479C26.9632 67.9024 36.7412 72.9894 45.2573 72.9894C49.863 72.9894 53.8608 71.4614 56.5138 68.6938C56.6842 68.5245 56.8131 68.3781 56.9375 68.2317C57.0572 68.0853 57.1724 67.9344 57.2783 67.7834C57.4257 67.5776 57.5086 67.4312 57.5961 67.2848C57.7389 67.0378 57.8034 66.9005 57.8678 66.7633M57.9369 66.6169C57.9968 66.4842 58.0475 66.347 58.0935 66.2097L57.9369 66.6169Z" fill="black"/>
<path d="M36.4442 15.6049C35.9229 15.6049 35.4115 15.3599 35.0908 14.9025C34.5745 14.161 34.7586 13.1434 35.5052 12.6289C46.9061 4.77258 60.2936 0.619019 74.2204 0.619019C86.0061 0.619019 97.6192 3.66192 107.802 9.41779C108.591 9.86369 108.867 10.8617 108.418 11.6457C107.969 12.4297 106.958 12.7024 106.177 12.2582C96.4861 6.78159 85.4371 3.88732 74.2204 3.88732C60.9661 3.88732 48.2266 7.83835 37.3782 15.3141C37.0937 15.5101 36.7665 15.6049 36.4442 15.6049Z" fill="black"/>
<path d="M29.9454 118.877C29.554 118.877 29.1626 118.74 28.8485 118.459C14.4711 105.657 6.22424 87.3229 6.22424 68.1574C6.22424 67.2558 6.96095 66.524 7.86869 66.524C8.77642 66.524 9.51313 67.2558 9.51313 68.1574C9.51313 86.3968 17.3604 103.846 31.0438 116.03C31.7197 116.631 31.7773 117.664 31.1705 118.337C30.8465 118.694 30.3976 118.877 29.9454 118.877Z" fill="black"/>
<path d="M118.487 118.884C118.037 118.884 117.588 118.701 117.262 118.34C116.657 117.669 116.713 116.636 117.39 116.034C128.763 105.912 136.19 92.1085 138.299 77.1651C138.426 76.2717 139.257 75.6445 140.156 75.7735C141.056 75.8977 141.684 76.7241 141.557 77.6176C139.339 93.3221 131.536 107.829 119.586 118.467C119.27 118.747 118.879 118.884 118.487 118.884Z" fill="black"/>
<path d="M106.213 44.5377H103.714C102.804 44.5377 102.069 43.8059 102.069 42.9043C102.069 42.0027 102.804 41.271 103.714 41.271H106.213C107.122 41.271 107.858 42.0027 107.858 42.9043C107.858 43.8059 107.122 44.5377 106.213 44.5377Z" fill="black"/>
<path d="M119.369 44.5377H116.869C115.96 44.5377 115.225 43.8059 115.225 42.9043C115.225 42.0027 115.96 41.271 116.869 41.271H119.369C120.278 41.271 121.013 42.0027 121.013 42.9043C121.013 43.8059 120.278 44.5377 119.369 44.5377Z" fill="black"/>
<path d="M132.524 44.5377H130.025C129.115 44.5377 128.38 43.8059 128.38 42.9043C128.38 42.0027 129.115 41.271 130.025 41.271H132.524C133.434 41.271 134.169 42.0027 134.169 42.9043C134.169 43.8059 133.434 44.5377 132.524 44.5377Z" fill="black"/>
</g>
<defs>
<clipPath id="clip0_21_220">
<rect width="148" height="147" fill="white"/>
</clipPath>
</defs>
</svg>
