<svg width="24" height="24" viewBox="0 0 24 24" fill="none" xmlns="http://www.w3.org/2000/svg">
<path d="M22.0799 21.24C22.1069 21.4805 22.0826 21.724 22.0088 21.9545C21.9349 22.1849 21.8131 22.3972 21.6513 22.5772C21.4891 22.7569 21.2907 22.9002 21.0691 22.9977C20.8474 23.0952 20.6077 23.1447 20.3656 23.1429H3.63416C3.39206 23.1447 3.15231 23.0952 2.93071 22.9977C2.7091 22.9002 2.51066 22.7569 2.34845 22.5772C2.18668 22.3972 2.06485 22.1849 1.99098 21.9545C1.91711 21.724 1.89288 21.4805 1.91988 21.24L3.42845 7.71429H20.5713L22.0799 21.24Z" stroke="black" stroke-width="1.71429" stroke-linecap="round" stroke-linejoin="round"/>
<path d="M7.71411 7.71429V5.14286C7.71411 4.00622 8.16564 2.91613 8.96937 2.1124C9.7731 1.30868 10.8632 0.857147 11.9998 0.857147C13.1365 0.857147 14.2266 1.30868 15.0303 2.1124C15.834 2.91613 16.2855 4.00622 16.2855 5.14286V7.71429" stroke="black" stroke-width="1.71429" stroke-linecap="round" stroke-linejoin="round"/>
</svg>
