<svg width="24" height="24" viewBox="0 0 24 24" fill="none" xmlns="http://www.w3.org/2000/svg">
<rect width="24" height="24" rx="12" fill="white"/>
<path d="M4.72095 18.98L5.74988 15.2437C5.11375 14.147 4.78004 12.905 4.78352 11.6353C4.78352 7.65673 8.03717 4.422 12.0312 4.422C13.9709 4.422 15.7924 5.17273 17.1585 6.53582C18.5281 7.8989 19.2824 9.71174 19.279 11.6387C19.279 15.6173 16.0253 18.852 12.0278 18.852H12.0243C10.8111 18.852 9.61881 18.5476 8.55859 17.9733L4.72095 18.98ZM8.74283 16.669L8.96182 16.8005C9.88647 17.3471 10.9467 17.6342 12.0278 17.6377H12.0312C15.3509 17.6377 18.0554 14.9496 18.0554 11.6422C18.0554 10.0404 17.4297 8.53547 16.293 7.40072C15.1563 6.26597 13.6407 5.64324 12.0312 5.64324C8.71154 5.63978 6.00711 8.3279 6.00711 11.6353C6.00711 12.7666 6.32344 13.8702 6.92829 14.825L7.07081 15.0534L6.46249 17.2641L8.74283 16.669Z" fill="white"/>
<path d="M4.97473 18.7275L5.9689 15.1191C5.35363 14.0639 5.03035 12.8635 5.03035 11.6388C5.03383 7.79859 8.17277 4.67456 12.0313 4.67456C13.9049 4.67456 15.6603 5.40108 16.9813 6.71573C18.3022 8.03038 19.0287 9.78094 19.0287 11.6422C19.0287 15.4824 15.8863 18.6064 12.0313 18.6064H12.0278C10.8563 18.6064 9.70574 18.3123 8.68376 17.7588L4.97473 18.7275Z" fill="white"/>
<path d="M4.72095 18.98L5.74988 15.2437C5.11375 14.147 4.78004 12.905 4.78352 11.6353C4.78352 7.65673 8.03717 4.422 12.0312 4.422C13.9709 4.422 15.7924 5.17273 17.1585 6.53582C18.5281 7.8989 19.2824 9.71174 19.279 11.6387C19.279 15.6173 16.0253 18.852 12.0278 18.852H12.0243C10.8111 18.852 9.61881 18.5476 8.55859 17.9733L4.72095 18.98ZM8.74283 16.669L8.96182 16.8005C9.88647 17.3471 10.9467 17.6342 12.0278 17.6377H12.0312C15.3509 17.6377 18.0554 14.9496 18.0554 11.6422C18.0554 10.0404 17.4297 8.53547 16.293 7.40072C15.1563 6.26597 13.6407 5.64324 12.0312 5.64324C8.71154 5.63978 6.00711 8.3279 6.00711 11.6353C6.00711 12.7666 6.32344 13.8702 6.92829 14.825L7.07081 15.0534L6.46249 17.2641L8.74283 16.669Z" fill="#7D7D7D"/>
<path fill-rule="evenodd" clip-rule="evenodd" d="M10.2201 8.61854C10.0846 8.31755 9.94204 8.31063 9.81342 8.30717C9.70914 8.30371 9.58748 8.30371 9.46581 8.30371C9.34415 8.30371 9.14948 8.34869 8.98263 8.52859C8.81578 8.70849 8.34998 9.1444 8.34998 10.0335C8.34998 10.9192 9.00001 11.7772 9.09039 11.8982C9.18077 12.0193 10.3453 13.8979 12.1841 14.621C13.7136 15.2229 14.0265 15.1018 14.3567 15.0707C14.687 15.0396 15.4274 14.6348 15.5803 14.2127C15.7298 13.7907 15.7298 13.4309 15.6846 13.3547C15.6394 13.2786 15.5177 13.2337 15.337 13.1437C15.1562 13.0538 14.2663 12.6178 14.0995 12.5556C13.9326 12.4968 13.811 12.4656 13.6928 12.6455C13.5711 12.8254 13.2235 13.2302 13.1192 13.3513C13.0149 13.4724 12.9072 13.4862 12.7264 13.3963C12.5457 13.3063 11.9617 13.116 11.2699 12.5002C10.7311 12.0228 10.3661 11.4312 10.2618 11.2513C10.1576 11.0714 10.2514 10.9745 10.3418 10.8846C10.4217 10.805 10.5226 10.6735 10.6129 10.5698C10.7033 10.466 10.7346 10.3899 10.7937 10.2688C10.8528 10.1477 10.825 10.0439 10.7798 9.95394C10.7346 9.86745 10.38 8.97488 10.2201 8.61854Z" fill="#7D7D7D"/>
</svg>
