<svg width="24" height="24" viewBox="0 0 24 24" fill="none" xmlns="http://www.w3.org/2000/svg">
<path d="M22.08 21.2401C22.107 21.4806 22.0828 21.7241 22.0089 21.9545C21.935 22.185 21.8132 22.3972 21.6514 22.5772C21.4892 22.757 21.2908 22.9003 21.0692 22.9978C20.8476 23.0953 20.6078 23.1448 20.3657 23.1429H3.63429C3.39218 23.1448 3.15244 23.0953 2.93083 22.9978C2.70922 22.9003 2.51078 22.757 2.34857 22.5772C2.1868 22.3972 2.06497 22.185 1.9911 21.9545C1.91724 21.7241 1.893 21.4806 1.92 21.2401L3.42857 7.71436H20.5714L22.08 21.2401Z" stroke="black" stroke-width="1.71429" stroke-linecap="round" stroke-linejoin="round"/>
<path d="M7.71423 7.71432V5.14289C7.71423 4.00625 8.16576 2.91616 8.96949 2.11243C9.77322 1.30871 10.8633 0.857178 11.9999 0.857178C13.1366 0.857178 14.2267 1.30871 15.0304 2.11243C15.8341 2.91616 16.2857 4.00625 16.2857 5.14289V7.71432" stroke="black" stroke-width="1.71429" stroke-linecap="round" stroke-linejoin="round"/>
</svg>
